<?xml version="1.0" encoding="iso-8859-1"?>
<!DOCTYPE svg PUBLIC "-//W3C//DTD SVG 1.1//EN" "http://www.w3.org/Graphics/SVG/1.1/DTD/svg11.dtd">
<svg xmlns="http://www.w3.org/2000/svg" xmlns:xlink="http://www.w3.org/1999/xlink" version="1.1" viewBox="0 0 297 297" enable-background="new 0 0 297 297" width="512px" height="512px">
  <g>
    <path d="m167.946,248.094c-0.064-0.021-4.658-1.433-4.658-1.433-2.028-0.622-4.214-0.463-6.131,0.448l-8.657,4.116-8.657-4.116c-1.916-0.912-4.106-1.071-6.131-0.448 0,0-4.593,1.411-4.658,1.433-8.58,2.859-14.346,10.858-14.346,19.902v20.52c0,4.685 3.798,8.483 8.483,8.483h50.619c4.685,0 8.483-3.798 8.483-8.483v-20.52c0-9.044-5.766-17.042-14.347-19.902zm-2.619,31.94h-33.653v-12.037c0-1.706 1.072-3.217 2.675-3.783l1.188-.365 9.321,4.432c2.304,1.095 4.98,1.095 7.284,0l9.321-4.432 1.188,.365c1.603,0.566 2.675,2.078 2.675,3.783v12.037z" fill="#1f517f"/>
    <path d="m125.062,221.914c0,12.924 10.514,23.438 23.438,23.438s23.438-10.514 23.438-23.438-10.514-23.438-23.438-23.438-23.438,10.514-23.438,23.438zm29.91,0c0,3.569-2.903,6.472-6.472,6.472s-6.472-2.903-6.472-6.472 2.903-6.472 6.472-6.472 6.472,2.903 6.472,6.472z" fill="#1f517f"/>
    <path d="m123.19,99.396h50.619c4.685,0 8.483-3.798 8.483-8.483v-20.52c0-9.044-5.766-17.043-14.346-19.902-0.064-0.021-4.658-1.433-4.658-1.433-2.028-0.622-4.214-0.463-6.131,0.448l-8.657,4.116-8.657-4.116c-1.916-0.912-4.106-1.071-6.131-0.448 0,0-4.593,1.411-4.658,1.433-8.58,2.859-14.346,10.858-14.346,19.902v20.52c-0.001,4.685 3.797,8.483 8.482,8.483zm8.483-29.003c0-1.706 1.072-3.217 2.675-3.783l1.188-.365 9.321,4.432c2.304,1.095 4.98,1.095 7.284,0l9.321-4.432 1.188,.365c1.603,0.566 2.675,2.078 2.675,3.783v12.037h-33.653v-12.037z" fill="#1f517f"/>
    <path d="m148.5,46.877c12.924,0 23.438-10.514 23.438-23.438s-10.514-23.439-23.438-23.439-23.438,10.514-23.438,23.438 10.514,23.439 23.438,23.439zm0-29.911c3.569,0 6.472,2.903 6.472,6.472s-2.903,6.472-6.472,6.472-6.472-2.903-6.472-6.472 2.903-6.472 6.472-6.472z" fill="#1f517f"/>
    <path d="m61.52,248.094c-0.064-0.021-4.66-1.433-4.66-1.433-2.025-0.622-4.213-0.463-6.131,0.448l-8.655,4.116-8.657-4.116c-1.916-0.912-4.105-1.071-6.131-0.448 0,0-4.593,1.411-4.658,1.433-8.58,2.859-14.346,10.858-14.346,19.902v20.52c0,4.685 3.798,8.483 8.483,8.483h50.618c4.685,0 8.483-3.798 8.483-8.483v-20.52c-0.001-9.045-5.765-17.042-14.346-19.902zm-2.621,31.94h-33.652v-12.037c0-1.706 1.072-3.217 2.675-3.783l1.188-.365 9.321,4.432c2.304,1.095 4.979,1.095 7.285,0l9.32-4.432 1.189,.365c1.602,0.566 2.673,2.078 2.673,3.783v12.037z" fill="#1f517f"/>
    <path d="m42.074,245.353c12.924,0 23.438-10.514 23.438-23.438s-10.514-23.438-23.438-23.438-23.438,10.514-23.438,23.438 10.514,23.438 23.438,23.438zm0-29.911c3.569,0 6.472,2.903 6.472,6.472s-2.903,6.472-6.472,6.472-6.472-2.903-6.472-6.472 2.903-6.472 6.472-6.472z" fill="#1f517f"/>
    <path d="m274.373,248.094c-0.064-0.021-4.658-1.433-4.658-1.433-2.027-0.622-4.215-0.463-6.131,0.448l-8.657,4.116-8.656-4.116c-1.916-0.911-4.104-1.072-6.131-0.448 0,0-4.595,1.411-4.66,1.433-8.58,2.859-14.345,10.857-14.345,19.902v20.52c0,4.685 3.798,8.483 8.483,8.483h50.618c4.685,0 8.483-3.798 8.483-8.483v-20.52c5.68434e-14-9.044-5.766-17.042-14.346-19.902zm-2.62,31.94h-33.652v-12.037c0-1.706 1.071-3.217 2.673-3.783l1.189-.365 9.32,4.432c2.305,1.095 4.98,1.095 7.285,0l9.321-4.432 1.188,.365c1.603,0.566 2.675,2.078 2.675,3.783v12.037z" fill="#1f517f"/>
    <path d="m231.488,221.914c0,12.924 10.514,23.438 23.438,23.438 12.924,0 23.438-10.514 23.438-23.438s-10.514-23.438-23.438-23.438c-12.924,0-23.438,10.514-23.438,23.438zm29.911,0c0,3.569-2.903,6.472-6.472,6.472s-6.472-2.903-6.472-6.472 2.903-6.472 6.472-6.472 6.472,2.903 6.472,6.472z" fill="#1f517f"/>
    <path d="m42.074,181.731c4.685,0 8.483-3.798 8.483-8.483v-16.978h89.46v16.979c0,4.685 3.798,8.483 8.483,8.483s8.483-3.798 8.483-8.483v-16.979h89.46v16.979c0,4.685 3.798,8.483 8.483,8.483 4.685,0 8.483-3.798 8.483-8.483v-25.462c0-4.685-3.798-8.483-8.483-8.483h-97.943v-29.481c0-4.685-3.798-8.483-8.483-8.483s-8.483,3.798-8.483,8.483v29.481h-97.943c-4.685,0-8.483,3.798-8.483,8.483v25.462c7.10543e-15,4.684 3.798,8.482 8.483,8.482z" fill="#1f517f"/>
  </g>
</svg>
