<?xml version="1.0" encoding="iso-8859-1"?>
<!-- Generator: Adobe Illustrator 18.0.0, SVG Export Plug-In . SVG Version: 6.00 Build 0)  -->
<!DOCTYPE svg PUBLIC "-//W3C//DTD SVG 1.1//EN" "http://www.w3.org/Graphics/SVG/1.1/DTD/svg11.dtd">
<svg xmlns="http://www.w3.org/2000/svg" xmlns:xlink="http://www.w3.org/1999/xlink" version="1.1" id="Capa_1" x="0px" y="0px" viewBox="0 0 320 320" style="enable-background:new 0 0 320 320;" xml:space="preserve" width="512px" height="512px">
<g>
	<path d="M272.934,233.143H47.066C21.114,233.143,0,213.337,0,188.992v-57.984c0-24.345,21.114-44.15,47.066-44.15h225.867   c25.952,0,47.066,19.806,47.066,44.15v57.984C320,213.337,298.886,233.143,272.934,233.143z M47.066,106.857   c-14.925,0-27.066,10.834-27.066,24.15v57.984c0,13.316,12.142,24.15,27.066,24.15h225.867c14.925,0,27.066-10.834,27.066-24.15   v-57.984c0-13.316-12.142-24.15-27.066-24.15H47.066z" fill="#1f517f"/>
	<g>
		<g>
			<path d="M61.289,184.174c-4.143,0-7.5-3.357-7.5-7.5v-33.35c0-4.143,3.357-7.5,7.5-7.5s7.5,3.357,7.5,7.5v33.35     C68.789,180.816,65.432,184.174,61.289,184.174z" fill="#1f517f"/>
			<path d="M45.623,175.838c-2.685,0-5.28-1.445-6.628-3.979c-1.945-3.657-0.558-8.198,3.099-10.144l31.346-16.674     c3.659-1.948,8.2-0.557,10.144,3.099c1.945,3.657,0.558,8.198-3.099,10.144l-31.346,16.674     C48.017,175.555,46.811,175.838,45.623,175.838z" fill="#1f517f"/>
			<path d="M76.955,175.838c-1.188,0-2.394-0.283-3.516-0.881l-31.346-16.674c-3.656-1.945-5.044-6.486-3.099-10.144     c1.943-3.655,6.485-5.047,10.144-3.099l31.346,16.674c3.656,1.945,5.044,6.486,3.099,10.144     C82.235,174.393,79.64,175.838,76.955,175.838z" fill="#1f517f"/>
		</g>
		<g>
			<path d="M127.098,184.174c-4.143,0-7.5-3.357-7.5-7.5v-33.35c0-4.143,3.357-7.5,7.5-7.5s7.5,3.357,7.5,7.5v33.35     C134.598,180.816,131.24,184.174,127.098,184.174z" fill="#1f517f"/>
			<path d="M111.431,175.838c-2.685,0-5.28-1.445-6.628-3.979c-1.945-3.657-0.558-8.198,3.099-10.144l31.346-16.674     c3.659-1.948,8.199-0.557,10.144,3.099c1.945,3.657,0.558,8.198-3.099,10.144l-31.346,16.674     C113.824,175.555,112.618,175.838,111.431,175.838z" fill="#1f517f"/>
			<path d="M142.763,175.838c-1.188,0-2.394-0.283-3.516-0.881l-31.346-16.674c-3.656-1.945-5.044-6.486-3.099-10.144     c1.943-3.655,6.485-5.047,10.144-3.099l31.346,16.674c3.656,1.945,5.044,6.486,3.099,10.144     C148.043,174.393,145.447,175.838,142.763,175.838z" fill="#1f517f"/>
		</g>
		<g>
			<path d="M192.904,184.174c-4.143,0-7.5-3.357-7.5-7.5v-33.35c0-4.143,3.357-7.5,7.5-7.5s7.5,3.357,7.5,7.5v33.35     C200.404,180.816,197.047,184.174,192.904,184.174z" fill="#1f517f"/>
			<path d="M177.238,175.838c-2.685,0-5.28-1.445-6.628-3.979c-1.945-3.657-0.558-8.199,3.099-10.144l31.347-16.674     c3.658-1.948,8.199-0.557,10.144,3.099c1.945,3.657,0.558,8.199-3.099,10.144l-31.347,16.674     C179.632,175.555,178.426,175.838,177.238,175.838z" fill="#1f517f"/>
			<path d="M208.571,175.838c-1.188,0-2.393-0.283-3.516-0.881l-31.347-16.674c-3.656-1.944-5.044-6.486-3.099-10.144     c1.943-3.655,6.482-5.047,10.144-3.099l31.347,16.674c3.656,1.944,5.044,6.486,3.099,10.144     C213.852,174.393,211.256,175.838,208.571,175.838z" fill="#1f517f"/>
		</g>
		<g>
			<path d="M258.713,184.174c-4.143,0-7.5-3.357-7.5-7.5v-33.35c0-4.143,3.357-7.5,7.5-7.5s7.5,3.357,7.5,7.5v33.35     C266.213,180.816,262.855,184.174,258.713,184.174z" fill="#1f517f"/>
			<path d="M243.046,175.838c-2.685,0-5.28-1.444-6.628-3.979c-1.945-3.657-0.558-8.198,3.099-10.144l31.345-16.674     c3.658-1.948,8.2-0.558,10.144,3.099c1.945,3.657,0.558,8.198-3.099,10.144l-31.345,16.674     C245.439,175.555,244.233,175.838,243.046,175.838z" fill="#1f517f"/>
			<path d="M274.377,175.838c-1.188,0-2.394-0.283-3.516-0.881l-31.346-16.674c-3.656-1.945-5.044-6.486-3.099-10.144     c1.943-3.655,6.484-5.047,10.144-3.099l31.346,16.674c3.656,1.945,5.044,6.486,3.099,10.144     C279.657,174.393,277.062,175.838,274.377,175.838z" fill="#1f517f"/>
		</g>
	</g>
</g>
<g>
</g>
<g>
</g>
<g>
</g>
<g>
</g>
<g>
</g>
<g>
</g>
<g>
</g>
<g>
</g>
<g>
</g>
<g>
</g>
<g>
</g>
<g>
</g>
<g>
</g>
<g>
</g>
<g>
</g>
</svg>
