<?xml version="1.0" encoding="iso-8859-1"?>
<!DOCTYPE svg PUBLIC "-//W3C//DTD SVG 1.1//EN" "http://www.w3.org/Graphics/SVG/1.1/DTD/svg11.dtd">
<svg xmlns="http://www.w3.org/2000/svg" xmlns:xlink="http://www.w3.org/1999/xlink" version="1.1" viewBox="0 0 205.181 205.181" enable-background="new 0 0 205.181 205.181" width="512px" height="512px">
  <g>
    <path d="M136.185,109.421H122.08V77.399c12.889-6.96,21.667-20.594,21.667-36.241C143.748,18.463,125.285,0,102.59,0   S61.432,18.463,61.432,41.158c0,15.647,8.778,29.281,21.667,36.241v32.022H68.996c-19.522,0-35.404,15.882-35.404,35.404v31.266   c0,3.856,3.126,6.982,6.982,6.982h124.036c3.856,0,6.982-3.126,6.982-6.982v-31.266   C171.59,125.303,155.708,109.421,136.185,109.421z M102.59,13.963c14.995,0,27.195,12.2,27.195,27.195   c0,14.996-12.2,27.195-27.195,27.195s-27.195-12.2-27.195-27.195C75.395,26.163,87.595,13.963,102.59,13.963z M97.063,81.934   c1.809,0.244,3.652,0.382,5.527,0.382c1.875,0,3.718-0.138,5.527-0.382v27.487H97.063V81.934z M157.627,169.11H47.554v-24.284   c0-11.823,9.619-21.441,21.441-21.441h67.19c11.822,0,21.441,9.618,21.441,21.441V169.11z" fill="#1f517f"/>
    <path d="m164.608,191.218h-124.035c-3.856,0-6.982,3.125-6.982,6.982s3.126,6.982 6.982,6.982h124.036c3.856,0 6.982-3.125 6.982-6.982s-3.127-6.982-6.983-6.982z" fill="#1f517f"/>
  </g>
</svg>
